<svg width="717" height="602" viewBox="0 0 717 602" fill="none" xmlns="http://www.w3.org/2000/svg">
<path d="M695.109 19.5781H700.188C701.75 19.5781 702.661 19.7083 702.922 19.9688C703.443 20.2292 703.964 20.4896 704.484 20.75C705.266 20.75 705.917 21.0104 706.438 21.5312C707.74 22.5729 709.562 23.7448 711.906 25.0469C715.031 27.3906 716.594 30.125 716.594 33.25C716.594 36.375 713.469 42.8854 707.219 52.7812C701.229 62.4167 685.604 86.6354 660.344 125.438C602.01 214.76 549.797 297.573 503.703 373.875C424.016 506.427 383.781 573.094 383 573.875C382.219 574.656 381.698 575.438 381.438 576.219C381.177 577.781 380.135 578.562 378.312 578.562L372.844 577.391L362.297 580.125L356.047 578.953L349.406 580.125H347.062L325.188 583.25C312.167 583.25 305.656 578.823 305.656 569.969C305.656 566.323 306.828 561.766 309.172 556.297C317.245 537.286 357.87 468.146 431.047 348.875C382.87 350.177 335.344 350.828 288.469 350.828L204.484 350.438C190.682 372.573 171.802 403.953 147.844 444.578C96.0208 533.12 68.4167 577.781 65.0312 578.562C61.6458 579.604 58.9115 580.125 56.8281 580.125C54.7448 580.125 52.7917 578.953 50.9688 576.609C49.1458 574.005 47.8438 572.703 47.0625 572.703C46.5417 572.703 45.2396 573.224 43.1562 574.266C41.0729 575.307 38.0781 575.828 34.1719 575.828L25.1875 575.438L21.6719 573.094C21.4115 573.094 21.0208 573.484 20.5 574.266C20.2396 575.047 19.3281 575.438 17.7656 575.438C6.56771 575.438 0.96875 570.75 0.96875 561.375C0.96875 555.125 3.18229 546.922 7.60938 536.766C12.0365 526.609 17.7656 515.542 24.7969 503.562C32.0885 491.583 50.5781 463.328 80.2656 418.797C110.214 374.005 125.188 351.479 125.188 351.219C120.24 350.958 114.51 350.698 108 350.438C94.7188 350.438 85.3438 349.917 79.875 348.875C65.0312 346.271 54.875 334.031 49.4062 312.156C46.5417 301.479 45.2396 294.448 45.5 291.062C45.5 284.031 48.4948 280.516 54.4844 280.516L64.6406 283.25C69.849 283.51 82.349 284.161 102.141 285.203C121.932 286.245 136.125 286.766 144.719 286.766L166.984 285.984C200.839 232.859 241.333 172.833 288.469 105.906C254.094 134.031 215.943 148.094 174.016 148.094C154.224 148.094 137.167 143.406 122.844 134.031C108.521 124.396 101.359 112.286 101.359 97.7031C101.359 83.1198 106.828 71.6615 117.766 63.3281C128.703 54.7344 139.12 50.4375 149.016 50.4375C158.911 50.4375 163.859 52 163.859 55.125C163.859 56.1667 162.427 57.3385 159.562 58.6406C156.958 59.9427 155.656 61.2448 155.656 62.5469C155.656 66.7135 160.214 70.4896 169.328 73.875C178.443 77 188.599 78.5625 199.797 78.5625C211.255 78.5625 225.318 75.3073 241.984 68.7969C258.651 62.026 275.969 53.4323 293.938 43.0156C318.938 28.4323 338.729 16.3229 353.312 6.6875C361.646 2.52083 369.458 0.4375 376.75 0.4375C384.042 0.4375 389.25 1.34896 392.375 3.17188C395.76 4.73438 398.234 6.42708 399.797 8.25C401.359 9.8125 403.052 12.026 404.875 14.8906C406.698 17.4948 408.391 19.5781 409.953 21.1406C411.776 22.4427 412.688 24.0052 412.688 25.8281C412.688 27.651 411.646 30.5156 409.562 34.4219C407.74 38.3281 397.844 54.2135 379.875 82.0781C361.906 109.682 338.729 145.099 310.344 188.328C282.219 231.297 261.646 262.938 248.625 283.25C318.156 283.25 393.286 281.948 474.016 279.344C572.193 124.396 624.016 43.1458 629.484 35.5938C634.953 28.0417 639.901 23.0938 644.328 20.75C648.755 18.4062 654.224 17.2344 660.734 17.2344L695.109 19.5781ZM591.594 573.094C591.594 557.208 597.844 543.146 610.344 530.906C622.844 518.406 635.083 512.156 647.062 512.156C668.677 512.156 679.484 521.01 679.484 538.719C679.484 553.302 673.365 567.365 661.125 580.906C648.885 594.708 635.083 601.609 619.719 601.609C600.969 601.609 591.594 592.104 591.594 573.094Z" fill="white"/>
</svg>
